<svg width="40" height="40" xmlns="http://www.w3.org/2000/svg">
 <title/>

 <g>
  <title>background</title>
  <rect fill="none" id="canvas_background" height="42" width="42" y="-1" x="-1"/>
 </g>
 <g>
  <title>Layer 1</title>
  <g id="black" fill-rule="evenodd" fill="none">
   <g stroke="null" id="linkedin">
    <path stroke="null" id="Linkedin" fill="#000000" d="m19.979228,39.832791c11.006164,0 19.928425,-8.905503 19.928425,-19.890994c0,-10.985491 -8.922261,-19.890994 -19.928425,-19.890994c-11.006164,0 -19.928425,8.905503 -19.928425,19.890994c0,10.985491 8.922261,19.890994 19.928425,19.890994z"/>
    <path stroke="null" id="svg_1" fill="#1392d3" d="m14.587314,29.107004l0,-12.132717l-3.75698,0l0,12.132717l3.75698,0zm0,-16.433237c-0.02238,-1.08575 -0.747356,-1.912426 -1.925106,-1.912426c-1.178049,0 -1.947784,0.826676 -1.947784,1.912426c0,1.062172 0.747356,1.912764 1.902726,1.912764l0.02238,0c1.200429,0 1.947784,-0.850592 1.947784,-1.912764zm6.129293,16.433237l0,-6.912638c0,-0.369953 0.02679,-0.739905 0.135786,-1.003633c0.297983,-0.739541 0.976167,-1.505092 2.114904,-1.505092c1.491775,0 2.427335,0.845036 2.427335,2.508725l0,6.912638l3.782329,0l0,-7.097611c0,-3.802097 -2.03343,-5.571282 -4.745782,-5.571282c-2.223899,0 -3.200067,1.240992 -3.742093,2.085657l0.027156,-1.622701l-3.775792,0c0.054312,1.161508 0,12.205936 0,12.205936l3.776158,0z"/>
   </g>
  </g>
 </g>
</svg>